<svg width="17" height="17" viewBox="0 0 17 17" fill="none" xmlns="http://www.w3.org/2000/svg">
<path d="M1 7.17073C0.542008 7.17073 0.170732 7.54201 0.170732 8C0.170732 8.45799 0.542008 8.82927 1 8.82927V7.17073ZM16.5132 8.58638C16.8371 8.26253 16.8371 7.73747 16.5132 7.41362L11.2358 2.13619C10.9119 1.81234 10.3869 1.81234 10.063 2.13619C9.73917 2.46004 9.73917 2.9851 10.063 3.30895L14.7541 8L10.063 12.691C9.73917 13.0149 9.73917 13.54 10.063 13.8638C10.3869 14.1877 10.9119 14.1877 11.2358 13.8638L16.5132 8.58638ZM1 8.82927H15.9268V7.17073H1V8.82927Z" fill="white"/>
</svg>
