<svg width="44" height="40" viewBox="0 0 44 40" fill="none" xmlns="http://www.w3.org/2000/svg">
<path d="M44 18.75C44 16.9039 43.0108 15.3094 41.5556 14.4438V2.50078C41.5556 1.81719 41.0224 0 39.1111 0C38.5672 0 38.0272 0.185938 37.5849 0.548437L31.0895 5.86328C27.8269 8.53047 23.731 10 19.5556 10H4.88889C2.18854 10 0 12.2383 0 15V22.5C0 25.2617 2.18854 27.5 4.88889 27.5H7.46319C7.35701 28.3188 7.29667 29.1516 7.29667 30C7.29667 33.107 8.00403 36.043 9.24917 38.6672C9.64563 39.5023 10.5111 40 11.4186 40H17.0928C19.0827 40 20.2774 37.6688 19.0713 36.05C17.8185 34.3688 17.0737 32.2719 17.0737 30C17.0737 29.132 17.1974 28.2977 17.4106 27.5H19.5556C23.731 27.5 27.8269 28.9695 31.0888 31.6367L37.5841 36.9516C38.0173 37.3061 38.5555 37.4995 39.1103 37.5C41.014 37.5 41.5548 35.7203 41.5548 35V23.057C43.0108 22.1906 44 20.5961 44 18.75ZM36.6667 29.7984L34.142 27.7328C30.017 24.3578 24.8356 22.5 19.5556 22.5V15C24.8356 15 30.017 13.1422 34.142 9.76719L36.6667 7.70156V29.7984Z" fill="#0AB0D2"/>
</svg>
