<svg width="39" height="40" viewBox="0 0 39 40" fill="none" xmlns="http://www.w3.org/2000/svg">
<path d="M38.4765 1.49217C38.4276 1.25838 38.3138 1.04407 38.1489 0.874985C37.984 0.705905 37.775 0.589254 37.547 0.539055C35.0936 0 33.1743 0 31.2619 0C23.3988 0 18.6825 4.31244 15.1632 9.99986H7.22396C6.54593 10.0004 5.88141 10.1943 5.30461 10.5597C4.72781 10.9252 4.26144 11.4479 3.9576 12.0694L0.192173 19.788C0.0531159 20.0739 -0.0123713 20.3916 0.00192606 20.7107C0.0162234 21.0299 0.109831 21.34 0.273865 21.6117C0.437899 21.8834 0.666917 22.1075 0.939184 22.2629C1.21145 22.4184 1.51793 22.4998 1.82955 22.4997H9.73602L8.02398 24.2551C7.56685 24.7239 7.31005 25.3597 7.31005 26.0227C7.31005 26.6856 7.56685 27.3214 8.02398 27.7902L11.9022 31.7675C12.1286 31.9997 12.3974 32.1839 12.6932 32.3096C12.9891 32.4353 13.3062 32.4999 13.6264 32.4999C13.9466 32.4999 14.2637 32.4353 14.5596 32.3096C14.8554 32.1839 15.1242 31.9997 15.3506 31.7675L17.0627 30.0121V38.1245C17.0626 38.4439 17.1421 38.758 17.2936 39.0371C17.4451 39.3161 17.6637 39.5509 17.9285 39.7191C18.1933 39.8872 18.4957 39.9833 18.8069 39.998C19.118 40.0128 19.4277 39.9457 19.7066 39.8033L27.2267 35.9448C27.8339 35.6338 28.3444 35.1555 28.7011 34.5634C29.0578 33.9714 29.2464 33.2892 29.2458 32.5933V24.4364C34.7766 20.8192 38.9985 15.9677 38.9985 7.9452C39.0061 5.97648 39.0061 4.00776 38.4765 1.49217ZM29.2535 13.1248C28.6507 13.1248 28.0614 12.9415 27.5602 12.5982C27.0591 12.2548 26.6684 11.7667 26.4378 11.1957C26.2071 10.6247 26.1467 9.99639 26.2643 9.39021C26.3819 8.78403 26.6722 8.22721 27.0984 7.79018C27.5246 7.35315 28.0677 7.05553 28.6589 6.93495C29.2501 6.81437 29.8629 6.87626 30.4198 7.11278C30.9767 7.3493 31.4526 7.74983 31.7875 8.26373C32.1224 8.77762 32.3011 9.3818 32.3011 9.99986C32.3011 10.8286 31.9801 11.6235 31.4085 12.2095C30.8369 12.7956 30.0618 13.1248 29.2535 13.1248Z" fill="#4B59B8"/>
</svg>
