<svg width="314" height="243" viewBox="0 0 314 243" fill="none" xmlns="http://www.w3.org/2000/svg">
<path d="M49.3237 243V46.8829L0.817871 68.8675V34.6692L61.1884 2.91356H88.7565V243H49.3237Z" fill="url(#paint0_linear_1_55)"/>
<path d="M145.921 243V213.338C145.921 199.845 146.27 188.562 146.968 179.489C147.898 170.183 149.643 162.39 152.202 156.108C154.761 149.827 158.833 144.476 164.416 140.056C169.999 135.636 177.677 131.448 187.448 127.493L246.073 103.066C254.216 99.8089 260.264 96.7846 264.219 93.9929C268.174 90.9685 270.85 87.3626 272.246 83.175C273.641 78.9875 274.339 73.5204 274.339 66.7738C274.339 56.7702 272.711 49.4419 269.454 44.7891C266.429 40.1363 260.846 37.1119 252.704 35.7161C244.794 34.3202 233.627 33.6223 219.203 33.6223C213.852 33.6223 207.222 33.8549 199.312 34.3202C191.635 34.7855 183.493 35.3671 174.885 36.065C166.51 36.763 158.484 37.4609 150.806 38.1588V7.10111C157.786 5.70526 165.928 4.54205 175.234 3.61148C184.54 2.68091 194.078 1.86667 203.849 1.16875C213.852 0.470822 223.158 0.121857 231.766 0.121857C243.165 0.121857 253.75 0.81978 263.521 2.21563C273.292 3.37884 281.9 6.05422 289.345 10.2418C297.022 14.4293 302.954 20.827 307.142 29.4347C311.562 37.8098 313.772 49.2093 313.772 63.6331C313.772 77.8243 312.144 89.2237 308.887 97.8315C305.862 106.207 301.209 113.07 294.928 118.42C288.647 123.538 280.504 128.075 270.501 132.03L203.5 159.598C197.684 161.924 193.38 164.483 190.588 167.275C187.797 170.067 186.052 173.789 185.354 178.442C184.656 183.095 184.307 189.143 184.307 196.588V209.151H313.772V243H145.921Z" fill="url(#paint1_linear_1_55)"/>
<path d="M242.709 183.25H224.52V170.146H242.709V152.201H255.862V170.146H274.051V183.25H255.862V200.901H242.709V183.25Z" fill="url(#paint2_linear_1_55)"/>
<defs>
<linearGradient id="paint0_linear_1_55" x1="157" y1="-15.5" x2="157" y2="243" gradientUnits="userSpaceOnUse">
<stop stop-color="#01BCD6"/>
<stop offset="1" stop-color="#5748B2"/>
</linearGradient>
<linearGradient id="paint1_linear_1_55" x1="157" y1="-15.5" x2="157" y2="243" gradientUnits="userSpaceOnUse">
<stop stop-color="#01BCD6"/>
<stop offset="1" stop-color="#5748B2"/>
</linearGradient>
<linearGradient id="paint2_linear_1_55" x1="157" y1="-15.5" x2="157" y2="243" gradientUnits="userSpaceOnUse">
<stop stop-color="#01BCD6"/>
<stop offset="1" stop-color="#5748B2"/>
</linearGradient>
</defs>
</svg>
